<svg width="1211" height="809" viewBox="0 0 1211 809" fill="none" xmlns="http://www.w3.org/2000/svg">
<path d="M273.962 7.8427C276.259 6.10928 277.606 5.62521 280.539 5.50578C292.398 5.02291 304.677 5.30038 316.549 5.36742L378.973 5.59338C400.546 5.65952 422.198 5.33557 443.744 5.5951C453.736 5.71546 467.623 5.70722 477.304 7.0381C508.85 11.3996 537.329 28.2336 556.359 53.7687C569.611 71.3658 577.635 90.0518 587.4 109.39L622.412 178.797L746.506 424.382L783.702 498.372C789.069 508.962 794.046 520.041 800.08 530.218C800.622 533.294 812.294 555.444 814.508 559.847L846.727 624.247C857.943 646.271 868.557 668.67 879.694 690.784C899.012 728.377 917.901 766.188 936.347 804.21C933.975 805.043 928.04 805.373 925.317 805.38C886.547 805.433 847.686 805.228 808.923 805.234L759.288 805.347C735.436 805.261 724.894 805.281 701.98 796.087C681.01 787.621 662.953 773.239 650.019 754.694C645.205 747.926 640.354 739.592 636.535 732.144C607.667 675.827 579.743 619.02 551.317 562.482L457.068 374.851L429.529 319.988C424.109 309.34 416.559 295.591 411.963 284.865C411.314 281.709 401.56 263.1 399.706 259.461L379.594 219.342L345.65 150.65C340.675 140.742 334.636 127.87 329.05 118.515L291.686 41.8986C287.33 33.0138 279.449 14.6782 273.962 7.8427Z" fill="#F239FF"/>
<path d="M273.946 7.87646C279.434 14.712 287.314 33.0475 291.67 41.9324L329.034 118.549C334.62 127.904 340.659 140.776 345.634 150.684L379.578 219.376L399.69 259.495C401.544 263.134 411.298 281.742 411.947 284.899C408.957 287.264 397.368 317.641 395.288 322.87C385.288 348.013 373.323 372.783 363.279 397.805C359.758 404.336 357.048 411.539 354.135 418.381C331.253 472.131 305.265 525.276 283.679 579.55C297.672 580.307 312.187 579.779 326.197 580.057C359.087 580.71 393.118 579.387 425.888 579.915C440.623 579.799 466.603 577.99 478.998 583.34C482.898 590.66 485.012 596.196 482.073 604.819C479.426 612.584 469.584 630.804 464.899 637.131C448.488 667.097 431.611 697.03 414.542 726.626C400.355 751.225 376.407 806.399 342.15 805.374C339.718 805.612 336.847 805.572 334.385 805.612C311.385 805.989 288.326 805.03 265.343 805.103C237.195 805.334 209.046 805.407 180.898 805.328C167.04 805.308 149.631 806.068 136.092 804.409C78.9259 797.417 31.9664 760.154 13.4939 705.318C3.52522 675.822 2.06208 644.111 9.2718 613.819C13.2055 597.378 19.2224 585.891 25.7134 570.676C48.0276 518.37 71.4827 466.263 94.4435 414.248L177.335 226.752L203.862 165.38C208.56 154.425 214.33 140.096 219.582 129.542C223.093 122.344 225.671 113.945 229.254 106.703C245.134 74.5984 256.564 39.0819 273.946 7.87646Z" fill="url(#paint0_linear_1848_4942)"/>
<path d="M342.146 805.388C335.739 803.221 333.097 799.777 326.984 794.675C326.984 794.675 315.238 782.825 311.114 775.079C299.665 753.573 287.834 732.271 276.867 710.501C271.703 700.25 265.69 690.25 261.123 679.696C258.75 674.329 257.012 668.698 255.943 662.928C255.01 657.619 254.623 649.079 255.925 644.063C259.185 631.504 277.603 588.275 283.675 579.564C297.669 580.321 312.184 579.794 326.193 580.071C359.084 580.724 393.115 579.402 425.884 579.929C440.619 579.813 466.6 578.004 478.994 583.354C482.894 590.674 485.008 596.211 482.069 604.833C479.422 612.598 469.581 630.818 464.895 637.145C448.485 667.112 431.607 697.045 414.538 726.64C400.352 751.24 376.403 806.413 342.146 805.388Z" fill="url(#paint1_linear_1848_4942)"/>
<path d="M273.96 7.87646C279.448 14.712 287.328 33.0475 291.684 41.9324L329.048 118.549C334.634 127.904 340.673 140.776 345.648 150.684L379.592 219.376L389.954 239.308L412.417 285.25C383.337 242.951 291.684 156.032 291.684 156.032L229.268 106.703C245.148 74.5984 256.578 39.0819 273.96 7.87646Z" fill="#6A32B3"/>
<path d="M876.32 6.39706C923.027 6.82777 970.097 5.60406 1016.72 6.12119C1036.62 6.86128 1057.54 4.8013 1077.3 6.98051C1156.6 15.7246 1208.09 89.4892 1206.18 166.303C1205.34 199.968 1194.93 220.319 1181.52 250.304L1154.09 312.033C1141.33 341.23 1129.12 370.824 1115.63 399.741C1112.4 406.668 1108.14 418.49 1104.45 424.358L1103.35 423.451C1100.88 422.19 1096.09 422.867 1096.22 422.867C1095.58 419.98 1097.52 404.835 1097.71 400.682C1099.76 356.414 1094.74 309.509 1065.42 274.308C1044.91 249.672 1002.61 233.629 971.611 231.594C958.954 230.764 944.804 231.331 931.995 230.924C930.945 230.891 930.978 230.513 930.079 229.464L929.008 230.986C884.641 231.385 840.267 231.485 795.9 231.287C779.926 231.158 763.733 231.608 747.772 231.293C720.926 230.7 722.717 212.805 732.743 194.017C742.306 176.107 753.192 158.986 762.94 141.276C778.015 113.439 793.488 85.8152 809.343 58.4148C815.212 48.2386 822.522 32.7068 830.763 24.7517C843.155 12.7947 858.746 5.20601 876.32 6.39706Z" fill="#F239FF"/>
<path d="M929.008 230.999C884.641 231.398 840.267 231.497 795.9 231.299C779.926 231.17 763.733 231.621 747.772 231.306C720.926 230.713 722.717 212.817 732.743 194.029C742.306 176.119 753.192 158.998 762.94 141.289C778.015 113.451 793.488 85.8278 809.343 58.4275C815.212 48.2512 822.521 32.7195 830.763 24.7643C843.155 12.8074 858.746 5.21865 876.32 6.40971C885.183 11.5329 886.829 16.3153 892.651 25.1803C896.326 30.522 904.786 45.1355 907.165 50.7934C920.185 81.7619 957.824 129.754 955.279 162.931C952.894 182.809 940.336 201.209 933.754 220.035C932.822 222.7 931.242 226.921 930.079 229.477L929.008 230.999Z" fill="url(#paint2_linear_1848_4942)"/>
<path d="M929.004 230.974L930.074 229.452C930.973 230.5 930.94 230.878 931.991 230.911C944.799 231.319 958.95 230.752 971.606 231.582C1002.6 233.617 1044.9 249.66 1065.42 274.296C1099.42 305.32 1106.49 380.077 1104.44 424.345C1103.01 430.86 1088.36 462.158 1084.64 470.377L1050.18 548.033C1028.6 597.104 1007.36 646.698 985.168 695.449C981.388 703.756 972.221 727.536 968.665 733.517C959.604 753.424 951.356 773.443 941.905 793.152C940.18 796.76 937.866 800.779 936.34 804.229C917.894 766.206 899.005 728.395 879.686 690.802C868.55 668.688 857.935 646.29 846.72 624.265L814.5 559.865C812.286 555.463 800.614 533.313 800.072 530.237C801.242 520.818 813.859 493.774 818.155 484.1C826.284 465.807 835.041 442.747 844.129 425.101C846.059 418.985 851.174 408.023 853.877 401.837L875.78 352.682L915.713 261.937C920.101 251.995 924.562 240.483 929.004 230.974Z" fill="url(#paint3_linear_1848_4942)"/>
<path d="M844.129 425.128C845.715 428.58 847.096 428.369 847.215 428.772C852.701 446.893 858.795 477.645 863.005 494.674L902.911 661.881L914.503 712.369C916.162 719.632 939.677 786.378 941.905 793.179C951.356 773.47 932.843 813.086 941.905 793.179C940.18 796.787 937.866 800.806 936.34 804.256C917.894 766.233 899.005 728.422 879.686 690.83C868.55 668.715 857.935 646.317 846.72 624.293L814.5 559.892C812.286 555.49 800.614 533.34 800.072 530.264C801.242 520.845 813.859 493.801 818.155 484.127C826.284 465.834 835.041 442.774 844.129 425.128Z" fill="#6A32B3"/>
<path d="M750.639 806.701C755.952 805.663 923.897 805.822 927.579 806.701C927.685 806.654 761.041 808.029 750.639 806.701Z" fill="#89ECF9" fill-opacity="0.0117647"/>
<path d="M174.118 806.661C181.677 805.821 201.883 806.211 210.49 806.291C223.684 806.423 243.387 805.65 256.111 806.661C244.908 807.606 226.935 806.991 214.92 807.031C203.888 807.064 184.564 807.546 174.118 806.661Z" fill="#89ECF9" fill-opacity="0.0117647"/>
<defs>
<linearGradient id="paint0_linear_1848_4942" x1="305.453" y1="918.783" x2="218.067" y2="35.4841" gradientUnits="userSpaceOnUse">
<stop stop-color="#F239FF"/>
<stop offset="1" stop-color="#8943E3"/>
</linearGradient>
<linearGradient id="paint1_linear_1848_4942" x1="369.267" y1="579.543" x2="294.428" y2="804.643" gradientUnits="userSpaceOnUse">
<stop stop-color="#F239FF"/>
<stop offset="1" stop-color="#8943E3"/>
</linearGradient>
<linearGradient id="paint2_linear_1848_4942" x1="704.605" y1="166.176" x2="955.739" y2="82.7276" gradientUnits="userSpaceOnUse">
<stop stop-color="#F239FF"/>
<stop offset="1" stop-color="#8943E3"/>
</linearGradient>
<linearGradient id="paint3_linear_1848_4942" x1="1013.99" y1="195.279" x2="952.371" y2="804.229" gradientUnits="userSpaceOnUse">
<stop stop-color="#F239FF"/>
<stop offset="1" stop-color="#8943E3"/>
</linearGradient>
</defs>
</svg>
